<svg xmlns="http://www.w3.org/2000/svg" xmlns:xlink="http://www.w3.org/1999/xlink" xmlns:lucid="lucid" width="1771" height="2378.33"><g transform="translate(-220 -622.6656389102883)" lucid:page-tab-id="0_0"><path d="M0 0h2152.83v3044.72H0z" fill="#fff"/><path d="M587.33 670.68c22.1 0 40 17.9 40 40s-17.9 40-40 40h-120c-22.1 0-40-17.9-40-40s17.9-40 40-40z" stroke="#000" stroke-opacity="0" stroke-width="2" fill="#d2d3d5"/><use xlink:href="#a" transform="matrix(1,0,0,1,432.33214019525576,675.6836928808209) translate(59.902541033817975 41.658806444176825)"/><path d="M687.33 650.67c0-4.42 3.58-8 8-8h184c4.42 0 8 3.58 8 8V770.7c0 4.42-3.58 8-8 8h-184c-4.42 0-8-3.58-8-8z" stroke="#000" stroke-opacity="0" stroke-width="2" fill="#5abaa7"/><use xlink:href="#b" transform="matrix(1,0,0,1,692.3321401952558,647.6656389102883) translate(19.652117479631116 51.628998815171634)"/><use xlink:href="#c" transform="matrix(1,0,0,1,692.3321401952558,647.6656389102883) translate(117.75275227092102 51.628998815171634)"/><use xlink:href="#d" transform="matrix(1,0,0,1,692.3321401952558,647.6656389102883) translate(147.34781772476396 51.628998815171634)"/><use xlink:href="#e" transform="matrix(1,0,0,1,692.3321401952558,647.6656389102883) translate(23.32058659577598 87.24200236965672)"/><use xlink:href="#f" transform="matrix(1,0,0,1,692.3321401952558,647.6656389102883) translate(89.27059317815576 87.24200236965672)"/><path d="M783.2 1464.96c2.94-3.3 7.72-3.3 10.67 0l97.84 109.18c2.96 3.3 2.96 8.62 0 11.9l-97.83 109.2c-2.95 3.28-7.73 3.28-10.68 0l-97.86-109.2c-2.95-3.28-2.95-8.6 0-11.9z" stroke="#5abaa7" stroke-width="5" fill="#fff"/><use xlink:href="#g" transform="matrix(1,0,0,1,685.0000000000005,1463.9999999951829) translate(26.70714608228866 104.96016488942414)"/><use xlink:href="#h" transform="matrix(1,0,0,1,685.0000000000005,1463.9999999951829) translate(122.07106123218654 104.96016488942414)"/><use xlink:href="#i" transform="matrix(1,0,0,1,685.0000000000005,1463.9999999951829) translate(150.84051126480279 104.96016488942414)"/><use xlink:href="#j" transform="matrix(1,0,0,1,685.0000000000005,1463.9999999951829) translate(57.60024632622616 139.57967022115176)"/><path d="M783.28 1806.04c2.9-3.34 7.6-3.34 10.5 0l98.03 112.92c2.9 3.34 2.9 8.74 0 12.08l-98.03 112.92c-2.9 3.34-7.6 3.34-10.5 0l-98.03-112.92c-2.9-3.34-2.9-8.74 0-12.08z" stroke="#19967d" stroke-width="5" fill="#fff"/><use xlink:href="#k" transform="matrix(1,0,0,1,685.0000000000005,1805) translate(27.989349983463754 108.46016488942414)"/><use xlink:href="#l" transform="matrix(1,0,0,1,685.0000000000005,1805) translate(87.21114266898857 108.46016488942414)"/><use xlink:href="#m" transform="matrix(1,0,0,1,685.0000000000005,1805) translate(73.62779509091487 143.07967022115176)"/><path d="M247.77 1873c0-4.42 3.58-8 8-8H507.1c4.42 0 8 3.58 8 8v104c0 4.42-3.58 8-8 8H255.77c-4.42 0-8-3.58-8-8z" stroke="#000" stroke-opacity="0" stroke-width="2" fill="#acdfd6"/><use xlink:href="#n" transform="matrix(1,0,0,1,252.76712088405202,1870) translate(17.848949316883733 26.150412223560306)"/><use xlink:href="#o" transform="matrix(1,0,0,1,252.76712088405202,1870) translate(121.70746531206663 26.150412223560306)"/><use xlink:href="#p" transform="matrix(1,0,0,1,252.76712088405202,1870) translate(55.313344554343615 60.76991755528793)"/><use xlink:href="#q" transform="matrix(1,0,0,1,252.76712088405202,1870) translate(95.38221646606542 60.76991755528793)"/><use xlink:href="#r" transform="matrix(1,0,0,1,252.76712088405202,1870) translate(31.31209027922226 95.38942288701557)"/><use xlink:href="#s" transform="matrix(1,0,0,1,252.76712088405202,1870) translate(76.10908907652723 95.38942288701557)"/><use xlink:href="#t" transform="matrix(1,0,0,1,252.76712088405202,1870) translate(114.57520611178015 95.38942288701557)"/><path d="M1908 2720c17.67 0 32 17.9 32 40s-14.33 40-32 40h-96c-17.67 0-32-17.9-32-40s14.33-40 32-40z" stroke="#000" stroke-opacity="0" stroke-width="2" fill="#d2d3d5"/><use xlink:href="#u" transform="matrix(1,0,0,1,1785,2725) translate(46.1412293019974 41.493223407050586)"/><path d="M1080 1885.7c0-4.43 3.58-8 8-8h184c4.42 0 8 3.57 8 8v78.6c0 4.43-3.58 8-8 8h-184c-4.42 0-8-3.57-8-8z" stroke="#000" stroke-opacity="0" stroke-width="2" fill="#5abaa7"/><use xlink:href="#v" transform="matrix(1,0,0,1,1085,1882.690247334136) translate(27.00312436580812 30.960164889424124)"/><use xlink:href="#w" transform="matrix(1,0,0,1,1085,1882.690247334136) translate(140.6384451074511 30.960164889424124)"/><use xlink:href="#x" transform="matrix(1,0,0,1,1085,1882.690247334136) translate(70.1973682866442 65.57967022115176)"/><path d="M1157.45 1539.14c0-4.42 3.58-8 8-8h226.9c4.42 0 8 3.58 8 8v69.8c0 4.42-3.58 8-8 8h-226.9c-4.42 0-8-3.58-8-8z" stroke="#000" stroke-opacity="0" stroke-width="2" fill="#5abaa7"/><use xlink:href="#y" transform="matrix(1,0,0,1,1162.448925480286,1536.1350190815347) translate(9.355836508055916 43.76991755528794)"/><use xlink:href="#z" transform="matrix(1,0,0,1,1162.448925480286,1536.1350190815347) translate(74.9886486994562 43.76991755528794)"/><use xlink:href="#A" transform="matrix(1,0,0,1,1162.448925480286,1536.1350190815347) translate(105.36085360854133 43.76991755528794)"/><path d="M627.83 710.68h43.12" stroke="#333" fill="none"/><path d="M627.84 711.18h-.54l.03-.5-.02-.5h.54z" fill="#333"/><path d="M685.7 710.68l-14.25 4.64v-9.27z" stroke="#333" fill="#333"/><path d="M787.33 779.7v42.7" stroke="#333" stroke-width="2" fill="none"/><path d="M788.33 779.73h-2v-1.03h2z" fill="#333"/><path d="M787.33 837.67l-4.63-14.26h9.27z" stroke="#333" stroke-width="2" fill="#333"/><path d="M789.53 1441.52h-2v-48.3h2zm-1.2-80.98h-2v-36h2z" fill="#333"/><path d="M788.33 1324.58h-2v-1.03h2zM788.53 1456.8l-4.64-14.28h9.26z" fill="#333"/><path d="M788.53 1460.02l-6.02-18.5h12.04zm-3.26-16.5l3.26 10.03 3.25-10.03z" fill="#333"/><use xlink:href="#B" transform="matrix(1,0,0,1,765.129632764913,1360.5353638341596) translate(0 21.78644681410117)"/><path d="M787.83 1191.3h-1v-57.24h1zm0-91.86h-1v-49.16h1z" fill="#333"/><path d="M787.6 1049.8l.23-.03v.52h-1v-.58zM787.33 1206.08l-4.63-14.27h9.27z" fill="#333"/><path d="M787.33 1207.7l-5.32-16.4h10.66zm-3.94-15.4l3.93 12.16 3.95-12.15zM1138.95 1573.04v2l-112.92-.04h-2.77v-2h2.77zm-243.3 1.96v-2h88.08v2z" fill="#333"/><path d="M895.67 1575h-.4l-.07-.18-1.23-1.82h1.7zM1154.2 1574.04l-14.25 4.63v-9.27z" fill="#333"/><path d="M1157.45 1574.04l-18.5 6v-12zm-16.5 3.26l10.03-3.26-10.03-3.26z" fill="#333"/><use xlink:href="#C" transform="matrix(1,0,0,1,983.7251344279524,1558.1603481186828) translate(0 21.1241146655962)"/><path d="M789.03 1784.7h-1v-18.23h1zm0-49.92h-1v-34.1h1zM789.03 1700.2v.48h-1v-.55zM788.53 1799.46l-4.64-14.27h9.26z" fill="#333"/><path d="M788.53 1801.08l-5.33-16.4h10.65zm-3.95-15.4l3.95 12.16 3.94-12.15z" fill="#333"/><use xlink:href="#D" transform="matrix(1,0,0,1,762.1208413546406,1734.779760828917) translate(0 21.1241146655962)"/><path d="M601.68 1925.5h-70.2v-1h70.2zm78.45 0H641.2v-1h38.93z" fill="#333"/><path d="M680.66 1925.5h-.54v-1h.48zM530.98 1929.64l-14.26-4.64 14.26-4.64z" fill="#333"/><path d="M531.48 1930.32L515.1 1925l16.38-5.32zm-13.14-5.32l12.14 3.95v-7.9z" fill="#333"/><use xlink:href="#C" transform="matrix(1,0,0,1,601.6757032309471,1909.1569140008028) translate(0 21.1241146655962)"/><path d="M781.82 845.8c3.05-3.2 7.98-3.2 11.02 0l88.98 93.74c3.05 3.2 3.05 8.4 0 11.6l-88.98 93.74c-3.04 3.2-7.97 3.2-11.02 0l-88.98-93.74c-3.04-3.2-3.04-8.4 0-11.6z" stroke="#19967d" stroke-width="5" fill="#fff"/><use xlink:href="#E" transform="matrix(1,0,0,1,692.3321401952558,845) translate(39.02493191320516 88.62899881517163)"/><use xlink:href="#F" transform="matrix(1,0,0,1,692.3321401952558,845) translate(99.94625049367849 88.62899881517163)"/><use xlink:href="#G" transform="matrix(1,0,0,1,692.3321401952558,845) translate(30.739962336293686 124.24200236965672)"/><path d="M1060 918.68c0-4.4 3.58-8 8-8h224c4.42 0 8 3.6 8 8v104c0 4.42-3.58 8-8 8h-224c-4.42 0-8-3.58-8-8z" stroke="#000" stroke-opacity="0" stroke-width="2" fill="#5abaa7"/><use xlink:href="#H" transform="matrix(1,0,0,1,1065,915.6836928808209) translate(42.6198677758382 43.128998815171634)"/><use xlink:href="#I" transform="matrix(1,0,0,1,1065,915.6836928808209) translate(170.89263057856687 43.128998815171634)"/><use xlink:href="#J" transform="matrix(1,0,0,1,1065,915.6836928808209) translate(58.98371315909116 78.74200236965672)"/><path d="M1041.5 959.68v2h-49.8v-2zm-153.9-13.34v-2h67.3v2z" fill="#333"/><path d="M887.62 946.34h-1.1l.1-.7-.13-1.3h1.12zM1056.76 960.68l-14.26 4.64v-9.27z" fill="#333"/><path d="M1060 960.68l-18.5 6.02v-12.03zm-16.5 3.26l10.03-3.26-10.03-3.26z" fill="#333"/><use xlink:href="#K" transform="matrix(1,0,0,1,954.9047672835007,935.7030169947519) translate(0.004999999999999005 23.079670221151755)"/><path d="M788.33 1189.2h-2v-55.14h2zm0-89.76h-2v-48.66h2z" fill="#333"/><path d="M787.6 1049.8l.73-.1v1.1h-2v-1.13zM787.33 1204.46l-4.63-14.27h9.27z" fill="#333"/><path d="M787.33 1207.7l-6-18.5h12zm-3.26-16.5l3.26 10.02 3.26-10.03z" fill="#333"/><use xlink:href="#L" transform="matrix(1,0,0,1,763.811712383075,1099.4362600474624) translate(0.004999999999999005 23.079670221151755)"/><path d="M670.28 1216.7c0-4.42 3.58-8 8-8h218.1c4.42 0 8 3.58 8 8v97.85c0 4.42-3.58 8-8 8h-218.1c-4.42 0-8-3.58-8-8z" stroke="#99d5ca" stroke-width="2" fill="#5abaa7"/><use xlink:href="#y" transform="matrix(1,0,0,1,675.2801708219848,1213.6947953562108) translate(2.0301201393830155 40.46016488942412)"/><use xlink:href="#z" transform="matrix(1,0,0,1,675.2801708219848,1213.6947953562108) translate(67.6629323307833 40.46016488942412)"/><use xlink:href="#M" transform="matrix(1,0,0,1,675.2801708219848,1213.6947953562108) translate(98.03513723986843 40.46016488942412)"/><use xlink:href="#N" transform="matrix(1,0,0,1,675.2801708219848,1213.6947953562108) translate(52.47682987624076 75.07967022115176)"/><use xlink:href="#O" transform="matrix(1,0,0,1,675.2801708219848,1213.6947953562108) translate(92.54570178796254 75.07967022115176)"/><use xlink:href="#x" transform="matrix(1,0,0,1,675.2801708219848,1213.6947953562108) translate(122.91790669704767 75.07967022115176)"/><path d="M1460 1525.1c0-4.4 3.58-8 8-8h221.33c4.42 0 8 3.6 8 8v97.87c0 4.4-3.58 8-8 8H1468c-4.42 0-8-3.6-8-8z" stroke="#000" stroke-opacity="0" stroke-width="2" fill="#acdfd6"/><use xlink:href="#P" transform="matrix(1,0,0,1,1465,1522.107606828898) translate(22.803247528921204 40.46016488942412)"/><use xlink:href="#Q" transform="matrix(1,0,0,1,1465,1522.107606828898) translate(142.6893122887928 40.46016488942412)"/><use xlink:href="#R" transform="matrix(1,0,0,1,1465,1522.107606828898) translate(54.77820731447519 75.07967022115176)"/><path d="M1401.36 1574.04h40.14" stroke="#333" stroke-width="2" fill="none"/><path d="M1401.38 1575.04h-1.02v-2h1.02z" fill="#333"/><path d="M1456.76 1574.04l-14.26 4.63v-9.27z" stroke="#333" stroke-width="2" fill="#333"/><path d="M951.3 1926h-53.88v-2h53.88zm110.2 0h-63.16v-2h63.16z" fill="#333"/><path d="M897.44 1926h-1l.03-.13-.1-1.87h1.07zM1076.76 1925l-14.26 4.64v-9.28z" fill="#333"/><path d="M1080 1925l-18.5 6v-12zm-16.5 3.26l10.03-3.26-10.03-3.26z" fill="#333"/><use xlink:href="#L" transform="matrix(1,0,0,1,951.3037027383501,1907.690247334136) translate(0.004999999999999005 23.079670221151755)"/><path d="M1414.26 1885.7c0-4.43 3.58-8 8-8h221.34c4.4 0 8 3.57 8 8v78.6c0 4.43-3.6 8-8 8h-221.34c-4.42 0-8-3.57-8-8z" stroke="#000" stroke-opacity="0" stroke-width="2" fill="#99d5ca"/><use xlink:href="#P" transform="matrix(1,0,0,1,1419.262992343318,1882.690247334136) translate(21.280630396275768 48.26991755528794)"/><use xlink:href="#S" transform="matrix(1,0,0,1,1419.262992343318,1882.690247334136) translate(141.16669515614737 48.26991755528794)"/><path d="M1408.53 2088c0-4.42 3.58-8 8-8h232.8c4.42 0 8 3.58 8 8v78.62c0 4.42-3.58 8-8 8h-232.8c-4.42 0-8-3.58-8-8z" stroke="#000" stroke-opacity="0" stroke-width="2" fill="#99d5ca"/><use xlink:href="#y" transform="matrix(1,0,0,1,1413.525984686636,2085) translate(33.0714432864161 48.26991755528794)"/><use xlink:href="#T" transform="matrix(1,0,0,1,1413.525984686636,2085) translate(98.70425547781639 48.26991755528794)"/><path d="M1452.93 2259.84c0-4.4 3.58-8 8-8h144c4.42 0 8 3.6 8 8v63.24c0 4.42-3.58 8-8 8h-144c-4.42 0-8-3.58-8-8z" stroke="#99d5ca" stroke-width="2" fill="#5abaa7"/><use xlink:href="#U" transform="matrix(1,0,0,1,1457.9290624409462,2256.843677314044) translate(6.20174692757368 23.460164889424124)"/><use xlink:href="#V" transform="matrix(1,0,0,1,1457.9290624409462,2256.843677314044) translate(107.0150286574657 23.460164889424124)"/><use xlink:href="#W" transform="matrix(1,0,0,1,1457.9290624409462,2256.843677314044) translate(46.23054996738375 58.07967022115176)"/><path d="M1281 1925h114.76" stroke="#333" stroke-width="2" fill="none"/><path d="M1281.03 1926H1280v-2h1.03z" fill="#333"/><path d="M1411.03 1925l-14.27 4.64v-9.28z" stroke="#333" stroke-width="2" fill="#333"/><path d="M1532.93 1973.3v88.2" stroke="#333" stroke-width="2" fill="none"/><path d="M1533.93 1973.34h-2v-1.03h2z" fill="#333"/><path d="M1532.93 2076.76l-4.64-14.26h9.26z" stroke="#333" stroke-width="2" fill="#333"/><path d="M1532.93 2175.62v56.72" stroke="#333" stroke-width="2" fill="none"/><path d="M1533.93 2175.65h-2v-1.03h2z" fill="#333"/><path d="M1532.93 2247.6l-4.64-14.26h9.26z" stroke="#333" stroke-width="2" fill="#333"/><path d="M802.87 2188.58c3.12-3.12 8.2-3.12 11.3 0l97.23 97.23c3.12 3.13 3.12 8.2 0 11.32l-97.22 97.22c-3.12 3.13-8.2 3.13-11.3 0l-97.22-97.22c-3.13-3.12-3.13-8.2 0-11.3z" stroke="#5abaa7" stroke-width="5" fill="#fff"/><use xlink:href="#X" transform="matrix(1,0,0,1,705,2187.926365291543) translate(17.250549380029668 110.65880644417683)"/><use xlink:href="#Y" transform="matrix(1,0,0,1,705,2187.926365291543) translate(105.84966845671578 110.65880644417683)"/><path d="M802.77 2484.8c3.18-3.08 8.33-3.08 11.52 0l83.45 80.44c3.18 3.06 3.18 8.03 0 11.1l-83.46 80.44c-3.2 3.07-8.35 3.07-11.53 0l-83.46-80.44c-3.17-3.07-3.17-8.04 0-11.1z" stroke="#19967d" stroke-width="5" fill="#fff"/><use xlink:href="#Z" transform="matrix(1,0,0,1,718.546396852478,2484.239010663455) translate(32.706519553228546 93.65880644417683)"/><path d="M979.76 2590.63c0-4.42 3.58-8 8-8h124c4.42 0 8 3.58 8 8v44c0 4.4-3.58 8-8 8h-124c-4.42 0-8-3.6-8-8z" stroke="#000" stroke-opacity="0" stroke-width="2" fill="#5abaa7"/><use xlink:href="#aa" transform="matrix(1,0,0,1,984.7606535096998,2587.625290743824) translate(10.626540815793525 30.76991755528794)"/><path d="M1234.6 2590.63c0-4.42 3.58-8 8-8h124c4.42 0 8 3.58 8 8v44c0 4.4-3.58 8-8 8h-124c-4.42 0-8-3.6-8-8z" stroke="#000" stroke-opacity="0" stroke-width="2" fill="#5abaa7"/><use xlink:href="#ab" transform="matrix(1,0,0,1,1239.6029997878773,2587.625290743824) translate(29.779461589596544 30.76991755528794)"/><path d="M1504.54 2581c0-4.4 3.6-8 8-8h124c4.42 0 8 3.6 8 8v63.24c0 4.42-3.58 8-8 8h-124c-4.4 0-8-3.58-8-8z" stroke="#000" stroke-opacity="0" stroke-width="2" fill="#5abaa7"/><use xlink:href="#ac" transform="matrix(1,0,0,1,1509.5446071453623,2578.005785412096) translate(10.626540815793525 23.460164889424124)"/><use xlink:href="#ad" transform="matrix(1,0,0,1,1509.5446071453623,2578.005785412096) translate(29.779461589596544 58.07967022115176)"/><path d="M942.07 2708c0-4.42 3.58-8 8-8h199.38c4.42 0 8 3.58 8 8v167.1c0 4.42-3.58 8-8 8H950.07c-4.42 0-8-3.58-8-8z" stroke="#000" stroke-opacity="0" stroke-width="2" fill="#99d5ca"/><use xlink:href="#ae" transform="matrix(1,0,0,1,947.0723815391132,2705) translate(46.94364819550121 23.530906891832682)"/><use xlink:href="#af" transform="matrix(1,0,0,1,947.0723815391132,2705) translate(63.81264327033608 58.15041222356031)"/><use xlink:href="#ag" transform="matrix(1,0,0,1,947.0723815391132,2705) translate(81.36280916767024 58.15041222356031)"/><use xlink:href="#af" transform="matrix(1,0,0,1,947.0723815391132,2705) translate(60.60713351739834 92.76991755528795)"/><use xlink:href="#ah" transform="matrix(1,0,0,1,947.0723815391132,2705) translate(78.15729941473248 92.76991755528795)"/><use xlink:href="#ai" transform="matrix(1,0,0,1,947.0723815391132,2705) translate(63.81264327033608 127.38942288701558)"/><use xlink:href="#af" transform="matrix(1,0,0,1,947.0723815391132,2705) translate(53.3546677013767 162.0089282187432)"/><use xlink:href="#aj" transform="matrix(1,0,0,1,947.0723815391132,2705) translate(70.90483359871084 162.0089282187432)"/><path d="M1196.9 2708c0-4.42 3.6-8 8-8h199.4c4.4 0 8 3.58 8 8v167.1c0 4.42-3.6 8-8 8h-199.4c-4.4 0-8-3.58-8-8z" stroke="#000" stroke-opacity="0" stroke-width="2" fill="#99d5ca"/><use xlink:href="#ak" transform="matrix(1,0,0,1,1201.9147278172907,2705) translate(18.174198162884963 75.46016488942412)"/><use xlink:href="#al" transform="matrix(1,0,0,1,1201.9147278172907,2705) translate(130.28690177188253 75.46016488942412)"/><use xlink:href="#am" transform="matrix(1,0,0,1,1201.9147278172907,2705) translate(3.7093354027533962 110.07967022115176)"/><use xlink:href="#an" transform="matrix(1,0,0,1,1201.9147278172907,2705) translate(96.58898049412451 110.07967022115176)"/><use xlink:href="#ao" transform="matrix(1,0,0,1,1201.9147278172907,2705) translate(119.02754876468872 110.07967022115176)"/><path d="M1451.76 2708c0-4.42 3.58-8 8-8h229.57c4.42 0 8 3.58 8 8v167.1c0 4.42-3.58 8-8 8h-229.57c-4.42 0-8-3.58-8-8z" stroke="#000" stroke-opacity="0" stroke-width="2" fill="#99d5ca"/><g><use xlink:href="#ak" transform="matrix(1,0,0,1,1456.7570740954684,2705) translate(29.16731097171278 40.8406595576965)"/><use xlink:href="#ap" transform="matrix(1,0,0,1,1456.7570740954684,2705) translate(141.28001458071037 40.8406595576965)"/><use xlink:href="#af" transform="matrix(1,0,0,1,1456.7570740954684,2705) translate(78.85271214224781 75.46016488942412)"/><use xlink:href="#aq" transform="matrix(1,0,0,1,1456.7570740954684,2705) translate(96.40287803958196 75.46016488942412)"/><use xlink:href="#af" transform="matrix(1,0,0,1,1456.7570740954684,2705) translate(63.62654081579353 110.07967022115176)"/><use xlink:href="#ar" transform="matrix(1,0,0,1,1456.7570740954684,2705) translate(81.17670671312769 110.07967022115176)"/><use xlink:href="#af" transform="matrix(1,0,0,1,1456.7570740954684,2705) translate(63.586471943881804 144.69917555287938)"/><use xlink:href="#as" transform="matrix(1,0,0,1,1456.7570740954684,2705) translate(81.13663784121596 144.69917555287938)"/></g><path d="M713.42 2569.8v2h-45v-2zm-134.92 1.75v-2h53.13v2z" fill="#333"/><path d="M714.4 2570.97l.12.82h-1.12v-2h1.13zM577.5 2575.2l-14.26-4.65 14.26-4.63z" fill="#333"/><path d="M578.5 2576.56l-18.5-6 18.5-6.02zm-12.03-6l10.03 3.25v-6.5z" fill="#333"/><g><use xlink:href="#K" transform="matrix(1,0,0,1,631.6282924469045,2553.47802132691) translate(0.004999999999999005 23.079670221151755)"/></g><path d="M240 2496.86c0-4.42 3.58-8 8-8h304c4.42 0 8 3.58 8 8v147.38c0 4.42-3.58 8-8 8H248c-4.42 0-8-3.58-8-8z" stroke="#000" stroke-opacity="0" stroke-width="2" fill="#acdfd6"/><g><use xlink:href="#n" transform="matrix(1,0,0,1,245,2493.858515995182) translate(23.814513361022847 48.15041222356031)"/><use xlink:href="#at" transform="matrix(1,0,0,1,245,2493.858515995182) translate(127.67302935620575 48.15041222356031)"/><use xlink:href="#au" transform="matrix(1,0,0,1,245,2493.858515995182) translate(254.13038910959972 48.15041222356031)"/><use xlink:href="#av" transform="matrix(1,0,0,1,245,2493.858515995182) translate(2.017047041046169 82.76991755528793)"/><use xlink:href="#aw" transform="matrix(1,0,0,1,245,2493.858515995182) translate(117.3352604029815 82.76991755528793)"/><use xlink:href="#ax" transform="matrix(1,0,0,1,245,2493.858515995182) translate(157.4041323147033 82.76991755528793)"/><use xlink:href="#ay" transform="matrix(1,0,0,1,245,2493.858515995182) translate(195.87024934995623 82.76991755528793)"/><use xlink:href="#az" transform="matrix(1,0,0,1,245,2493.858515995182) translate(122.22366277621157 117.38942288701557)"/></g><path d="M808.36 2461.62h-2v-4.64h2zm1.17-39.26h-2v-22.15h2z" fill="#333"/><path d="M808.53 2399.2l1-.12v1.15h-2v-1.15zM807.36 2476.9l-4.64-14.28H812z" fill="#333"/><path d="M807.36 2480.13l-6-18.5h12zm-3.26-16.5l3.26 10.02 3.26-10.03z" fill="#333"/><g><use xlink:href="#L" transform="matrix(1,0,0,1,784.4215178332105,2422.35708566293) translate(0.004999999999999005 23.079670221151755)"/></g><path d="M1450.93 2291.46H934.76" stroke="#333" stroke-width="2" fill="none"/><path d="M1451.93 2292.46h-1.03v-2h1.03z" fill="#333"/><path d="M919.5 2291.46l14.26-4.63v9.27z" stroke="#333" stroke-width="2" fill="#333"/><path d="M903.63 2570.8h654.63" stroke="#333" stroke-width="2" fill="none"/><path d="M903.66 2571.8h-1.14l.13-1.2-.12-.8h1.13z" fill="#333"/><path d="M1571.34 2572.57l-14.76 2.67 1.25-9.2z" stroke="#333" stroke-width="2" fill="#333"/><path d="M903.63 2570.8h394.3" stroke="#333" stroke-width="2" fill="none"/><path d="M903.66 2571.8h-1.14l.13-1.2-.12-.8h1.13z" fill="#333"/><path d="M1303.02 2579.8l-11.04-10.15 8.08-4.55z" stroke="#333" stroke-width="2" fill="#333"/><path d="M903.63 2570.8h139.47" stroke="#333" stroke-width="2" fill="none"/><path d="M903.66 2571.8h-1.14l.13-1.2-.12-.8h1.13z" fill="#333"/><path d="M1048.17 2579.8l-11.03-10.15 8.07-4.55z" stroke="#333" stroke-width="2" fill="#333"/><path d="M1049.76 2643.13v40.5" stroke="#333" fill="none"/><path d="M1050.26 2643.14h-1v-.5h1z" fill="#333"/><path d="M1049.76 2698.38l-4.63-14.26h9.27z" stroke="#333" fill="#333"/><path d="M1304.6 2643.13v40.5" stroke="#333" fill="none"/><path d="M1305.1 2643.14h-1v-.5h1z" fill="#333"/><path d="M1304.6 2698.38l-4.63-14.26h9.27z" stroke="#333" fill="#333"/><path d="M1574.54 2652.74v30.88" stroke="#333" fill="none"/><path d="M1575.04 2652.76h-1v-.52h1z" fill="#333"/><path d="M1574.54 2698.38l-4.63-14.26h9.28z" stroke="#333" fill="#333"/><path d="M1049.76 2884.1v53.9c0 6.63 5.37 12 12 12h788.4c6.63 0 12-5.37 12-12v-119.5" stroke="#333" stroke-width="2" fill="none"/><path d="M1050.76 2884.12h-2v-1.02h2z" fill="#333"/><path d="M1862.17 2803.24l4.63 14.26h-9.27z" stroke="#333" stroke-width="2" fill="#333"/><path d="M400 2653.24V2978c0 6.63 5.37 12 12 12h1556c6.63 0 12-5.37 12-12v-206c0-6.63-5.37-12-12-12h-9.5" stroke="#333" stroke-width="2" fill="none"/><path d="M401 2653.27h-2v-1.03h2z" fill="#333"/><path d="M1943.24 2760l14.26-4.64v9.28z" stroke="#333" stroke-width="2" fill="#333"/><path d="M1304.6 2883.1v48.4M1319.6 2884.1h-30" stroke="#333" stroke-width="2" fill="none"/><path d="M1304.6 2946.76l-4.63-14.26h9.27z" stroke="#333" stroke-width="2" fill="#333"/><path d="M1574.54 2883.1v48.4M1589.54 2884.1h-30" stroke="#333" stroke-width="2" fill="none"/><path d="M1574.54 2946.76l-4.63-14.26h9.28z" stroke="#333" stroke-width="2" fill="#333"/><defs><path fill="#333" d="M185-189c-5-48-123-54-124 2 14 75 158 14 163 119 3 78-121 87-175 55-17-10-28-26-33-46l33-7c5 56 141 63 141-1 0-78-155-14-162-118-5-82 145-84 179-34 5 7 8 16 11 25" id="aA"/><path fill="#333" d="M59-47c-2 24 18 29 38 22v24C64 9 27 4 27-40v-127H5v-23h24l9-43h21v43h35v23H59v120" id="aB"/><path fill="#333" d="M141-36C126-15 110 5 73 4 37 3 15-17 15-53c-1-64 63-63 125-63 3-35-9-54-41-54-24 1-41 7-42 31l-33-3c5-37 33-52 76-52 45 0 72 20 72 64v82c-1 20 7 32 28 27v20c-31 9-61-2-59-35zM48-53c0 20 12 33 32 33 41-3 63-29 60-74-43 2-92-5-92 41" id="aC"/><path fill="#333" d="M114-163C36-179 61-72 57 0H25l-1-190h30c1 12-1 29 2 39 6-27 23-49 58-41v29" id="aD"/><g id="a"><use transform="matrix(0.09248342283578927,0,0,0.09248342283578927,0,0)" xlink:href="#aA"/><use transform="matrix(0.09248342283578927,0,0,0.09248342283578927,22.196021480589422,0)" xlink:href="#aB"/><use transform="matrix(0.09248342283578927,0,0,0.09248342283578927,31.44436376416835,0)" xlink:href="#aC"/><use transform="matrix(0.09248342283578927,0,0,0.09248342283578927,49.9410483313262,0)" xlink:href="#aD"/><use transform="matrix(0.09248342283578927,0,0,0.09248342283578927,60.946575648785114,0)" xlink:href="#aB"/></g><path fill="#333" d="M137 0h-34L2-248h35l83 218 83-218h36" id="aE"/><path fill="#333" d="M24 0v-261h32V0H24" id="aF"/><path fill="#333" d="M24-231v-30h32v30H24zM24 0v-190h32V0H24" id="aG"/><path fill="#333" d="M85-194c31 0 48 13 60 33l-1-100h32l1 261h-30c-2-10 0-23-3-31C134-8 116 4 85 4 32 4 16-35 15-94c0-66 23-100 70-100zm9 24c-40 0-46 34-46 75 0 40 6 74 45 74 42 0 51-32 51-76 0-42-9-74-50-73" id="aH"/><g id="b"><use transform="matrix(0.08243750822797473,0,0,0.08243750822797473,0,0)" xlink:href="#aE"/><use transform="matrix(0.08243750822797473,0,0,0.08243750822797473,17.559189252558618,0)" xlink:href="#aC"/><use transform="matrix(0.08243750822797473,0,0,0.08243750822797473,34.046690898153564,0)" xlink:href="#aF"/><use transform="matrix(0.08243750822797473,0,0,0.08243750822797473,40.55925404816357,0)" xlink:href="#aG"/><use transform="matrix(0.08243750822797473,0,0,0.08243750822797473,47.07181719817357,0)" xlink:href="#aH"/><use transform="matrix(0.08243750822797473,0,0,0.08243750822797473,63.559318843768516,0)" xlink:href="#aC"/><use transform="matrix(0.08243750822797473,0,0,0.08243750822797473,80.04682048936345,0)" xlink:href="#aD"/></g><path fill="#333" d="M135-143c-3-34-86-38-87 0 15 53 115 12 119 90S17 21 10-45l28-5c4 36 97 45 98 0-10-56-113-15-118-90-4-57 82-63 122-42 12 7 21 19 24 35" id="aI"/><g id="c"><use transform="matrix(0.08243750822797473,0,0,0.08243750822797473,0,0)" xlink:href="#aI"/><use transform="matrix(0.08243750822797473,0,0,0.08243750822797473,14.838751481035452,0)" xlink:href="#aG"/></g><path fill="#333" d="M100-194c63 0 86 42 84 106H49c0 40 14 67 53 68 26 1 43-12 49-29l28 8c-11 28-37 45-77 45C44 4 14-33 15-96c1-61 26-98 85-98zm52 81c6-60-76-77-97-28-3 7-6 17-6 28h103" id="aJ"/><g id="d"><use transform="matrix(0.08243750822797473,0,0,0.08243750822797473,0,0)" xlink:href="#aJ"/><use transform="matrix(0.08243750822797473,0,0,0.08243750822797473,16.487501645594946,0)" xlink:href="#aF"/></g><path fill="#333" d="M115-194c55 1 70 41 70 98S169 2 115 4C84 4 66-9 55-30l1 105H24l-1-265h31l2 30c10-21 28-34 59-34zm-8 174c40 0 45-34 45-75s-6-73-45-74c-42 0-51 32-51 76 0 43 10 73 51 73" id="aK"/><path fill="#333" d="M106-169C34-169 62-67 57 0H25v-261h32l-1 103c12-21 28-36 61-36 89 0 53 116 60 194h-32v-121c2-32-8-49-39-48" id="aL"/><g id="e"><use transform="matrix(0.08243750822797473,0,0,0.08243750822797473,0,0)" xlink:href="#aK"/><use transform="matrix(0.08243750822797473,0,0,0.08243750822797473,16.487501645594946,0)" xlink:href="#aC"/><use transform="matrix(0.08243750822797473,0,0,0.08243750822797473,32.97500329118989,0)" xlink:href="#aB"/><use transform="matrix(0.08243750822797473,0,0,0.08243750822797473,41.218754113987366,0)" xlink:href="#aL"/></g><path fill="#333" d="M141 0L90-78 38 0H4l68-98-65-92h35l48 74 47-74h35l-64 92 68 98h-35" id="aM"/><g id="f"><use transform="matrix(0.08243750822797473,0,0,0.08243750822797473,0,0)" xlink:href="#aJ"/><use transform="matrix(0.08243750822797473,0,0,0.08243750822797473,16.487501645594946,0)" xlink:href="#aM"/><use transform="matrix(0.08243750822797473,0,0,0.08243750822797473,31.326253126630398,0)" xlink:href="#aG"/><use transform="matrix(0.08243750822797473,0,0,0.08243750822797473,37.8388162766404,0)" xlink:href="#aI"/><use transform="matrix(0.08243750822797473,0,0,0.08243750822797473,52.67756775767585,0)" xlink:href="#aB"/><use transform="matrix(0.08243750822797473,0,0,0.08243750822797473,60.921318580473326,0)" xlink:href="#aJ"/></g><g id="g"><use transform="matrix(0.08013774382344359,0,0,0.08013774382344359,0,0)" xlink:href="#aE"/><use transform="matrix(0.08013774382344359,0,0,0.08013774382344359,17.069339434393484,0)" xlink:href="#aC"/><use transform="matrix(0.08013774382344359,0,0,0.08013774382344359,33.0968881990822,0)" xlink:href="#aF"/><use transform="matrix(0.08013774382344359,0,0,0.08013774382344359,39.427769961134246,0)" xlink:href="#aG"/><use transform="matrix(0.08013774382344359,0,0,0.08013774382344359,45.75865172318629,0)" xlink:href="#aH"/><use transform="matrix(0.08013774382344359,0,0,0.08013774382344359,61.78620048787501,0)" xlink:href="#aC"/><use transform="matrix(0.08013774382344359,0,0,0.08013774382344359,77.81374925256372,0)" xlink:href="#aD"/></g><g id="h"><use transform="matrix(0.08013774382344359,0,0,0.08013774382344359,0,0)" xlink:href="#aI"/><use transform="matrix(0.08013774382344359,0,0,0.08013774382344359,14.424793888219845,0)" xlink:href="#aG"/></g><g id="i"><use transform="matrix(0.08013774382344359,0,0,0.08013774382344359,0,0)" xlink:href="#aJ"/><use transform="matrix(0.08013774382344359,0,0,0.08013774382344359,16.027548764688717,0)" xlink:href="#aI"/></g><path fill="#333" d="M96-169c-40 0-48 33-48 73s9 75 48 75c24 0 41-14 43-38l32 2c-6 37-31 61-74 61-59 0-76-41-82-99-10-93 101-131 147-64 4 7 5 14 7 22l-32 3c-4-21-16-35-41-35" id="aN"/><path fill="#333" d="M108 0H70L1-190h34L89-25l56-165h34" id="aO"/><path fill="#333" d="M100-194c62-1 85 37 85 99 1 63-27 99-86 99S16-35 15-95c0-66 28-99 85-99zM99-20c44 1 53-31 53-75 0-43-8-75-51-75s-53 32-53 75 10 74 51 75" id="aP"/><g id="j"><use transform="matrix(0.08013774382344359,0,0,0.08013774382344359,0,0)" xlink:href="#aC"/><use transform="matrix(0.08013774382344359,0,0,0.08013774382344359,16.027548764688717,0)" xlink:href="#aD"/><use transform="matrix(0.08013774382344359,0,0,0.08013774382344359,25.563940279678505,0)" xlink:href="#aN"/><use transform="matrix(0.08013774382344359,0,0,0.08013774382344359,39.98873416789835,0)" xlink:href="#aL"/><use transform="matrix(0.08013774382344359,0,0,0.08013774382344359,56.01628293258707,0)" xlink:href="#aG"/><use transform="matrix(0.08013774382344359,0,0,0.08013774382344359,62.34716469463911,0)" xlink:href="#aO"/><use transform="matrix(0.08013774382344359,0,0,0.08013774382344359,76.77195858285896,0)" xlink:href="#aP"/></g><path fill="#333" d="M107 61C57 61 25 39 23-9c-2-65 71-58 78-115h30c1 64-76 54-76 114 0 30 21 42 52 43 32 0 53-17 56-46l32 2c-6 46-36 72-88 72zm26-251v35H99v-35h34" id="aQ"/><path fill="#333" d="M30 0v-248h187v28H63v79h144v27H63v87h162V0H30" id="aR"/><g id="k"><use transform="matrix(0.08013774382344359,0,0,0.08013774382344359,0,0)" xlink:href="#aQ"/><use transform="matrix(0.08013774382344359,0,0,0.08013774382344359,17.550165897334146,0)" xlink:href="#aR"/><use transform="matrix(0.08013774382344359,0,0,0.08013774382344359,36.78322441496061,0)" xlink:href="#aI"/></g><g id="l"><use transform="matrix(0.08013774382344359,0,0,0.08013774382344359,0,0)" xlink:href="#aC"/><use transform="matrix(0.08013774382344359,0,0,0.08013774382344359,16.027548764688717,0)" xlink:href="#aD"/><use transform="matrix(0.08013774382344359,0,0,0.08013774382344359,25.563940279678505,0)" xlink:href="#aN"/><use transform="matrix(0.08013774382344359,0,0,0.08013774382344359,39.98873416789835,0)" xlink:href="#aL"/><use transform="matrix(0.08013774382344359,0,0,0.08013774382344359,56.01628293258707,0)" xlink:href="#aG"/><use transform="matrix(0.08013774382344359,0,0,0.08013774382344359,62.34716469463911,0)" xlink:href="#aO"/><use transform="matrix(0.08013774382344359,0,0,0.08013774382344359,76.77195858285896,0)" xlink:href="#aP"/></g><path fill="#333" d="M240 0l2-218c-23 76-54 145-80 218h-23L58-218 59 0H30v-248h44l77 211c21-75 51-140 76-211h43V0h-30" id="aS"/><path fill="#333" d="M30-248c118-7 216 8 213 122C240-48 200 0 122 0H30v-248zM63-27c89 8 146-16 146-99s-60-101-146-95v194" id="aT"/><path fill="#333" d="M103-251c84 0 111 97 45 133-19 10-37 24-39 52H78c0-63 77-55 77-114 0-30-21-42-52-43-32 0-53 17-56 46l-32-2c7-45 34-72 88-72zM77 0v-35h34V0H77" id="aU"/><g id="m"><use transform="matrix(0.08013774382344359,0,0,0.08013774382344359,0,0)" xlink:href="#aS"/><use transform="matrix(0.08013774382344359,0,0,0.08013774382344359,23.961185403209633,0)" xlink:href="#aT"/><use transform="matrix(0.08013774382344359,0,0,0.08013774382344359,44.71686105348152,0)" xlink:href="#aU"/></g><path fill="#333" d="M115-194c53 0 69 39 70 98 0 66-23 100-70 100C84 3 66-7 56-30L54 0H23l1-261h32v101c10-23 28-34 59-34zm-8 174c40 0 45-34 45-75 0-40-5-75-45-74-42 0-51 32-51 76 0 43 10 73 51 73" id="aV"/><g id="n"><use transform="matrix(0.08013774382344359,0,0,0.08013774382344359,0,0)" xlink:href="#aR"/><use transform="matrix(0.08013774382344359,0,0,0.08013774382344359,19.23305851762646,0)" xlink:href="#aI"/><use transform="matrix(0.08013774382344359,0,0,0.08013774382344359,33.657852405846306,0)" xlink:href="#aN"/><use transform="matrix(0.08013774382344359,0,0,0.08013774382344359,48.08264629406615,0)" xlink:href="#aD"/><use transform="matrix(0.08013774382344359,0,0,0.08013774382344359,57.61903780905594,0)" xlink:href="#aG"/><use transform="matrix(0.08013774382344359,0,0,0.08013774382344359,63.94991957110798,0)" xlink:href="#aV"/><use transform="matrix(0.08013774382344359,0,0,0.08013774382344359,79.9774683357967,0)" xlink:href="#aG"/><use transform="matrix(0.08013774382344359,0,0,0.08013774382344359,86.30835009784875,0)" xlink:href="#aD"/></g><path fill="#333" d="M84 4C-5 8 30-112 23-190h32v120c0 31 7 50 39 49 72-2 45-101 50-169h31l1 190h-30c-1-10 1-25-2-33-11 22-28 36-60 37" id="aW"/><g id="o"><use transform="matrix(0.08013774382344359,0,0,0.08013774382344359,0,0)" xlink:href="#aD"/><use transform="matrix(0.08013774382344359,0,0,0.08013774382344359,9.536391514989788,0)" xlink:href="#aJ"/><use transform="matrix(0.08013774382344359,0,0,0.08013774382344359,25.563940279678505,0)" xlink:href="#aI"/><use transform="matrix(0.08013774382344359,0,0,0.08013774382344359,39.98873416789835,0)" xlink:href="#aW"/><use transform="matrix(0.08013774382344359,0,0,0.08013774382344359,56.01628293258707,0)" xlink:href="#aF"/><use transform="matrix(0.08013774382344359,0,0,0.08013774382344359,62.34716469463911,0)" xlink:href="#aB"/><use transform="matrix(0.08013774382344359,0,0,0.08013774382344359,70.36093907698347,0)" xlink:href="#aC"/><use transform="matrix(0.08013774382344359,0,0,0.08013774382344359,86.38848784167219,0)" xlink:href="#aH"/><use transform="matrix(0.08013774382344359,0,0,0.08013774382344359,102.4160366063609,0)" xlink:href="#aP"/></g><path fill="#333" d="M117-194c89-4 53 116 60 194h-32v-121c0-31-8-49-39-48C34-167 62-67 57 0H25l-1-190h30c1 10-1 24 2 32 11-22 29-35 61-36" id="aX"/><g id="p"><use transform="matrix(0.08013774382344359,0,0,0.08013774382344359,0,0)" xlink:href="#aJ"/><use transform="matrix(0.08013774382344359,0,0,0.08013774382344359,16.027548764688717,0)" xlink:href="#aX"/></g><path fill="#333" d="M68-38c1 34 0 65-14 84H32c9-13 17-26 17-46H33v-38h35" id="aY"/><g id="q"><use transform="matrix(0.08013774382344359,0,0,0.08013774382344359,0,0)" xlink:href="#aN"/><use transform="matrix(0.08013774382344359,0,0,0.08013774382344359,14.424793888219845,0)" xlink:href="#aP"/><use transform="matrix(0.08013774382344359,0,0,0.08013774382344359,30.452342652908563,0)" xlink:href="#aX"/><use transform="matrix(0.08013774382344359,0,0,0.08013774382344359,46.47989141759728,0)" xlink:href="#aI"/><use transform="matrix(0.08013774382344359,0,0,0.08013774382344359,60.904685305817125,0)" xlink:href="#aP"/><use transform="matrix(0.08013774382344359,0,0,0.08013774382344359,76.93223407050584,0)" xlink:href="#aF"/><use transform="matrix(0.08013774382344359,0,0,0.08013774382344359,83.26311583255789,0)" xlink:href="#aC"/><use transform="matrix(0.08013774382344359,0,0,0.08013774382344359,99.2906645972466,0)" xlink:href="#aY"/></g><path fill="#333" d="M173 0L80-213 41 0H11l48-248h37l94 214 40-214h30L212 0h-39" id="aZ"/><path fill="#333" d="M30-147c31-64 166-65 159 27C183-49 158 1 86 4 9 8 1-88 30-147zM88-20c53 0 68-48 68-100 0-31-11-51-44-50-52 1-68 46-68 97 0 32 13 53 44 53" id="ba"/><g id="r"><use transform="matrix(0.08013774382344359,0,0,0.08013774382344359,0,0)" xlink:href="#aZ"/><use transform="matrix(0.08013774382344359,0,0,0.08013774382344359,20.75567565027189,0)" xlink:href="#ba"/></g><path fill="#333" d="M55-144c13 50 104 24 104 88C159 21 15 23 1-39l26-10c6 40 102 42 102-4-13-50-104-23-104-87 0-71 143-71 148-8l-29 4c-5-35-85-37-89 0" id="bb"/><path fill="#333" d="M111-194c62-3 86 47 72 106H45c-7 38 6 69 45 68 27-1 43-14 53-32l24 11C152-15 129 4 87 4 38 3 12-23 12-71c0-70 32-119 99-123zm44 81c14-66-71-72-95-28-4 8-8 17-11 28h106" id="bc"/><g id="s"><use transform="matrix(0.08013774382344359,0,0,0.08013774382344359,0,0)" xlink:href="#bb"/><use transform="matrix(0.08013774382344359,0,0,0.08013774382344359,14.424793888219845,0)" xlink:href="#bc"/></g><path fill="#333" d="M67-158c22-48 132-52 116 29L158 0h-32l25-140c3-38-53-32-70-12C52-117 51-52 38 0H6l36-190h30" id="bd"/><path fill="#333" d="M44-68c0 29 11 47 38 47 30 0 42-19 51-41l28 9C148-21 126 4 82 4 31 4 10-29 12-85c3-77 74-140 146-93 12 8 15 23 18 40l-31 5c-1-22-13-36-36-36-52 0-65 49-65 101" id="be"/><path fill="#333" d="M51-54c-9 22 5 41 31 30L79-1C43 14 10-4 19-52l22-115H19l5-23h22l19-43h21l-9 43h35l-4 23H73" id="bf"/><path fill="#333" d="M66-151c12-25 30-51 66-40l-6 26C45-176 58-65 38 0H6l36-190h30" id="bg"/><path fill="#333" d="M31-147c31-64 166-65 159 27C184-49 159 1 87 4 10 8 2-88 31-147zM89-20c53 0 68-48 68-100 0-31-11-51-44-50-52 1-68 46-68 97 0 32 13 53 44 53zm5-191c10-23 31-35 45-54h38l-1 5-66 49H94" id="bh"/><g id="t"><use transform="matrix(0.08013774382344359,0,0,0.08013774382344359,0,0)" xlink:href="#bc"/><use transform="matrix(0.08013774382344359,0,0,0.08013774382344359,16.027548764688717,0)" xlink:href="#bd"/><use transform="matrix(0.08013774382344359,0,0,0.08013774382344359,32.055097529377434,0)" xlink:href="#be"/><use transform="matrix(0.08013774382344359,0,0,0.08013774382344359,46.47989141759728,0)" xlink:href="#ba"/><use transform="matrix(0.08013774382344359,0,0,0.08013774382344359,62.507440182286,0)" xlink:href="#bd"/><use transform="matrix(0.08013774382344359,0,0,0.08013774382344359,78.53498894697472,0)" xlink:href="#bf"/><use transform="matrix(0.08013774382344359,0,0,0.08013774382344359,86.54876332931909,0)" xlink:href="#bg"/><use transform="matrix(0.08013774382344359,0,0,0.08013774382344359,96.08515484430887,0)" xlink:href="#bh"/></g><g id="u"><use transform="matrix(0.09018365843125811,0,0,0.09018365843125811,0,0)" xlink:href="#aR"/><use transform="matrix(0.09018365843125811,0,0,0.09018365843125811,21.644078023501947,0)" xlink:href="#aX"/><use transform="matrix(0.09018365843125811,0,0,0.09018365843125811,39.680809709753575,0)" xlink:href="#aH"/></g><path fill="#333" d="M143 4C61 4 22-44 18-125c-5-107 100-154 193-111 17 8 29 25 37 43l-32 9c-13-25-37-40-76-40-61 0-88 39-88 99 0 61 29 100 91 101 35 0 62-11 79-27v-45h-74v-28h105v86C228-13 192 4 143 4" id="bi"/><g id="v"><use transform="matrix(0.08013774382344359,0,0,0.08013774382344359,0,0)" xlink:href="#bi"/><use transform="matrix(0.08013774382344359,0,0,0.08013774382344359,22.438568270564204,0)" xlink:href="#aW"/><use transform="matrix(0.08013774382344359,0,0,0.08013774382344359,38.46611703525292,0)" xlink:href="#aC"/><use transform="matrix(0.08013774382344359,0,0,0.08013774382344359,54.49366579994164,0)" xlink:href="#aD"/><use transform="matrix(0.08013774382344359,0,0,0.08013774382344359,64.03005731493143,0)" xlink:href="#aH"/><use transform="matrix(0.08013774382344359,0,0,0.08013774382344359,80.05760607962014,0)" xlink:href="#aC"/><use transform="matrix(0.08013774382344359,0,0,0.08013774382344359,96.08515484430886,0)" xlink:href="#aD"/></g><g id="w"><use transform="matrix(0.08013774382344359,0,0,0.08013774382344359,0,0)" xlink:href="#aF"/><use transform="matrix(0.08013774382344359,0,0,0.08013774382344359,6.3308817620520434,0)" xlink:href="#aC"/></g><g id="x"><use transform="matrix(0.08013774382344359,0,0,0.08013774382344359,0,0)" xlink:href="#aD"/><use transform="matrix(0.08013774382344359,0,0,0.08013774382344359,9.536391514989788,0)" xlink:href="#aW"/><use transform="matrix(0.08013774382344359,0,0,0.08013774382344359,25.563940279678505,0)" xlink:href="#aB"/><use transform="matrix(0.08013774382344359,0,0,0.08013774382344359,33.57771466202286,0)" xlink:href="#aC"/></g><path fill="#333" d="M30 0v-248h33v221h125V0H30" id="bj"/><g id="y"><use transform="matrix(0.08013774382344359,0,0,0.08013774382344359,0,0)" xlink:href="#bj"/><use transform="matrix(0.08013774382344359,0,0,0.08013774382344359,16.027548764688717,0)" xlink:href="#aJ"/><use transform="matrix(0.08013774382344359,0,0,0.08013774382344359,32.055097529377434,0)" xlink:href="#aJ"/><use transform="matrix(0.08013774382344359,0,0,0.08013774382344359,48.08264629406615,0)" xlink:href="#aD"/></g><g id="z"><use transform="matrix(0.08013774382344359,0,0,0.08013774382344359,0,0)" xlink:href="#aJ"/><use transform="matrix(0.08013774382344359,0,0,0.08013774382344359,16.027548764688717,0)" xlink:href="#aF"/></g><g id="A"><use transform="matrix(0.08013774382344359,0,0,0.08013774382344359,0,0)" xlink:href="#aH"/><use transform="matrix(0.08013774382344359,0,0,0.08013774382344359,16.027548764688717,0)" xlink:href="#aG"/><use transform="matrix(0.08013774382344359,0,0,0.08013774382344359,22.35843052674076,0)" xlink:href="#aD"/><use transform="matrix(0.08013774382344359,0,0,0.08013774382344359,31.89482204173055,0)" xlink:href="#aJ"/><use transform="matrix(0.08013774382344359,0,0,0.08013774382344359,47.922370806419266,0)" xlink:href="#aN"/><use transform="matrix(0.08013774382344359,0,0,0.08013774382344359,62.34716469463911,0)" xlink:href="#aB"/><use transform="matrix(0.08013774382344359,0,0,0.08013774382344359,70.36093907698347,0)" xlink:href="#aP"/><use transform="matrix(0.08013774382344359,0,0,0.08013774382344359,86.38848784167219,0)" xlink:href="#aD"/><use transform="matrix(0.08013774382344359,0,0,0.08013774382344359,95.92487935666198,0)" xlink:href="#aG"/><use transform="matrix(0.08013774382344359,0,0,0.08013774382344359,102.25576111871402,0)" xlink:href="#aP"/></g><path fill="#333" d="M137-103V0h-34v-103L8-248h37l75 118 75-118h37" id="bk"/><g id="B"><use transform="matrix(0.07564738477118461,0,0,0.07564738477118461,0,0)" xlink:href="#bk"/><use transform="matrix(0.07564738477118461,0,0,0.07564738477118461,15.659008647635213,0)" xlink:href="#aJ"/><use transform="matrix(0.07564738477118461,0,0,0.07564738477118461,30.788485601872132,0)" xlink:href="#aI"/></g><path fill="#333" d="M175 0L67-191c6 58 2 128 3 191H24v-248h59L193-55c-6-58-2-129-3-193h46V0h-61" id="bl"/><path fill="#333" d="M140-251c80 0 125 45 125 126S219 4 139 4C58 4 15-44 15-125s44-126 125-126zm-1 214c52 0 73-35 73-88 0-50-21-86-72-86-52 0-73 35-73 86s22 88 72 88" id="bm"/><g id="C"><use transform="matrix(0.07334762036665346,0,0,0.07334762036665346,0,0)" xlink:href="#bl"/><use transform="matrix(0.07334762036665346,0,0,0.07334762036665346,18.997033674963244,0)" xlink:href="#bm"/></g><path fill="#333" d="M146-102V0H94v-102L6-248h54l60 105 60-105h54" id="bn"/><path fill="#333" d="M24 0v-248h195v40H76v63h132v40H76v65h150V0H24" id="bo"/><path fill="#333" d="M169-182c-1-43-94-46-97-3 18 66 151 10 154 114 3 95-165 93-204 36-6-8-10-19-12-30l50-8c3 46 112 56 116 5-17-69-150-10-154-114-4-87 153-88 188-35 5 8 8 18 10 28" id="bp"/><g id="D"><use transform="matrix(0.07334762036665346,0,0,0.07334762036665346,0,0)" xlink:href="#bn"/><use transform="matrix(0.07334762036665346,0,0,0.07334762036665346,17.60342888799683,0)" xlink:href="#bo"/><use transform="matrix(0.07334762036665346,0,0,0.07334762036665346,35.20685777599366,0)" xlink:href="#bp"/></g><g id="E"><use transform="matrix(0.08243750822797473,0,0,0.08243750822797473,0,0)" xlink:href="#aQ"/><use transform="matrix(0.08243750822797473,0,0,0.08243750822797473,18.053814301926465,0)" xlink:href="#aR"/><use transform="matrix(0.08243750822797473,0,0,0.08243750822797473,37.8388162766404,0)" xlink:href="#aI"/></g><g id="F"><use transform="matrix(0.08243750822797473,0,0,0.08243750822797473,0,0)" xlink:href="#aD"/><use transform="matrix(0.08243750822797473,0,0,0.08243750822797473,9.810063479128992,0)" xlink:href="#aW"/><use transform="matrix(0.08243750822797473,0,0,0.08243750822797473,26.29756512472394,0)" xlink:href="#aB"/><use transform="matrix(0.08243750822797473,0,0,0.08243750822797473,34.54131594752141,0)" xlink:href="#aC"/></g><g id="G"><use transform="matrix(0.08243750822797473,0,0,0.08243750822797473,0,0)" xlink:href="#aC"/><use transform="matrix(0.08243750822797473,0,0,0.08243750822797473,16.487501645594946,0)" xlink:href="#aV"/><use transform="matrix(0.08243750822797473,0,0,0.08243750822797473,32.97500329118989,0)" xlink:href="#aI"/><use transform="matrix(0.08243750822797473,0,0,0.08243750822797473,47.813754772225344,0)" xlink:href="#aP"/><use transform="matrix(0.08243750822797473,0,0,0.08243750822797473,64.3012564178203,0)" xlink:href="#aF"/><use transform="matrix(0.08243750822797473,0,0,0.08243750822797473,70.81381956783031,0)" xlink:href="#aW"/><use transform="matrix(0.08243750822797473,0,0,0.08243750822797473,87.30132121342525,0)" xlink:href="#aB"/><use transform="matrix(0.08243750822797473,0,0,0.08243750822797473,95.54507203622273,0)" xlink:href="#aC"/><use transform="matrix(0.08243750822797473,0,0,0.08243750822797473,112.03257368181768,0)" xlink:href="#aU"/></g><path fill="#333" d="M212-179c-10-28-35-45-73-45-59 0-87 40-87 99 0 60 29 101 89 101 43 0 62-24 78-52l27 14C228-24 195 4 139 4 59 4 22-46 18-125c-6-104 99-153 187-111 19 9 31 26 39 46" id="bq"/><g id="H"><use transform="matrix(0.08243750822797473,0,0,0.08243750822797473,0,0)" xlink:href="#bq"/><use transform="matrix(0.08243750822797473,0,0,0.08243750822797473,21.351314631045454,0)" xlink:href="#aP"/><use transform="matrix(0.08243750822797473,0,0,0.08243750822797473,37.8388162766404,0)" xlink:href="#aX"/><use transform="matrix(0.08243750822797473,0,0,0.08243750822797473,54.32631792223535,0)" xlink:href="#aO"/><use transform="matrix(0.08243750822797473,0,0,0.08243750822797473,69.16506940327079,0)" xlink:href="#aJ"/><use transform="matrix(0.08243750822797473,0,0,0.08243750822797473,85.65257104886574,0)" xlink:href="#aD"/><use transform="matrix(0.08243750822797473,0,0,0.08243750822797473,95.46263452799474,0)" xlink:href="#aB"/><use transform="matrix(0.08243750822797473,0,0,0.08243750822797473,103.7063853507922,0)" xlink:href="#aG"/><use transform="matrix(0.08243750822797473,0,0,0.08243750822797473,110.21894850080221,0)" xlink:href="#aD"/></g><use transform="matrix(0.08243750822797473,0,0,0.08243750822797473,0,0)" xlink:href="#aC" id="I"/><g id="J"><use transform="matrix(0.08243750822797473,0,0,0.08243750822797473,0,0)" xlink:href="#aC"/><use transform="matrix(0.08243750822797473,0,0,0.08243750822797473,16.487501645594946,0)" xlink:href="#aV"/><use transform="matrix(0.08243750822797473,0,0,0.08243750822797473,32.97500329118989,0)" xlink:href="#aI"/><use transform="matrix(0.08243750822797473,0,0,0.08243750822797473,47.813754772225344,0)" xlink:href="#aP"/><use transform="matrix(0.08243750822797473,0,0,0.08243750822797473,64.3012564178203,0)" xlink:href="#aF"/><use transform="matrix(0.08243750822797473,0,0,0.08243750822797473,70.81381956783031,0)" xlink:href="#aW"/><use transform="matrix(0.08243750822797473,0,0,0.08243750822797473,87.30132121342525,0)" xlink:href="#aB"/><use transform="matrix(0.08243750822797473,0,0,0.08243750822797473,95.54507203622273,0)" xlink:href="#aC"/></g><path fill="#333" d="M190 0L58-211 59 0H30v-248h39L202-35l-2-213h31V0h-41" id="br"/><g id="K"><use transform="matrix(0.08013774382344359,0,0,0.08013774382344359,0,0)" xlink:href="#br"/><use transform="matrix(0.08013774382344359,0,0,0.08013774382344359,20.75567565027189,0)" xlink:href="#aP"/></g><g id="L"><use transform="matrix(0.08013774382344359,0,0,0.08013774382344359,0,0)" xlink:href="#bk"/><use transform="matrix(0.08013774382344359,0,0,0.08013774382344359,16.588512971452822,0)" xlink:href="#aJ"/><use transform="matrix(0.08013774382344359,0,0,0.08013774382344359,32.61606173614154,0)" xlink:href="#aI"/></g><g id="M"><use transform="matrix(0.08013774382344359,0,0,0.08013774382344359,0,0)" xlink:href="#aN"/><use transform="matrix(0.08013774382344359,0,0,0.08013774382344359,14.424793888219845,0)" xlink:href="#aP"/><use transform="matrix(0.08013774382344359,0,0,0.08013774382344359,30.452342652908563,0)" xlink:href="#aX"/><use transform="matrix(0.08013774382344359,0,0,0.08013774382344359,46.47989141759728,0)" xlink:href="#aB"/><use transform="matrix(0.08013774382344359,0,0,0.08013774382344359,54.49366579994164,0)" xlink:href="#aJ"/><use transform="matrix(0.08013774382344359,0,0,0.08013774382344359,70.52121456463036,0)" xlink:href="#aX"/><use transform="matrix(0.08013774382344359,0,0,0.08013774382344359,86.54876332931907,0)" xlink:href="#aG"/><use transform="matrix(0.08013774382344359,0,0,0.08013774382344359,92.87964509137112,0)" xlink:href="#aH"/><use transform="matrix(0.08013774382344359,0,0,0.08013774382344359,108.90719385605983,0)" xlink:href="#aP"/></g><g id="N"><use transform="matrix(0.08013774382344359,0,0,0.08013774382344359,0,0)" xlink:href="#aH"/><use transform="matrix(0.08013774382344359,0,0,0.08013774382344359,16.027548764688717,0)" xlink:href="#aJ"/></g><g id="O"><use transform="matrix(0.08013774382344359,0,0,0.08013774382344359,0,0)" xlink:href="#aF"/><use transform="matrix(0.08013774382344359,0,0,0.08013774382344359,6.3308817620520434,0)" xlink:href="#aC"/></g><path fill="#333" d="M233-177c-1 41-23 64-60 70L243 0h-38l-65-103H63V0H30v-248c88 3 205-21 203 71zM63-129c60-2 137 13 137-47 0-61-80-42-137-45v92" id="bs"/><g id="P"><use transform="matrix(0.08013774382344359,0,0,0.08013774382344359,0,0)" xlink:href="#bs"/><use transform="matrix(0.08013774382344359,0,0,0.08013774382344359,20.75567565027189,0)" xlink:href="#aJ"/><use transform="matrix(0.08013774382344359,0,0,0.08013774382344359,36.78322441496061,0)" xlink:href="#aN"/><use transform="matrix(0.08013774382344359,0,0,0.08013774382344359,51.20801830318045,0)" xlink:href="#aP"/><use transform="matrix(0.08013774382344359,0,0,0.08013774382344359,67.23556706786917,0)" xlink:href="#aD"/><use transform="matrix(0.08013774382344359,0,0,0.08013774382344359,76.77195858285896,0)" xlink:href="#aD"/><use transform="matrix(0.08013774382344359,0,0,0.08013774382344359,86.30835009784875,0)" xlink:href="#aJ"/><use transform="matrix(0.08013774382344359,0,0,0.08013774382344359,102.33589886253746,0)" xlink:href="#aD"/></g><g id="Q"><use transform="matrix(0.08013774382344359,0,0,0.08013774382344359,0,0)" xlink:href="#aN"/><use transform="matrix(0.08013774382344359,0,0,0.08013774382344359,14.424793888219845,0)" xlink:href="#aC"/><use transform="matrix(0.08013774382344359,0,0,0.08013774382344359,30.452342652908563,0)" xlink:href="#aH"/><use transform="matrix(0.08013774382344359,0,0,0.08013774382344359,46.47989141759728,0)" xlink:href="#aC"/></g><path fill="#333" d="M210-169c-67 3-38 105-44 169h-31v-121c0-29-5-50-35-48C34-165 62-65 56 0H25l-1-190h30c1 10-1 24 2 32 10-44 99-50 107 0 11-21 27-35 58-36 85-2 47 119 55 194h-31v-121c0-29-5-49-35-48" id="bt"/><g id="R"><use transform="matrix(0.08013774382344359,0,0,0.08013774382344359,0,0)" xlink:href="#aJ"/><use transform="matrix(0.08013774382344359,0,0,0.08013774382344359,16.027548764688717,0)" xlink:href="#aF"/><use transform="matrix(0.08013774382344359,0,0,0.08013774382344359,22.35843052674076,0)" xlink:href="#aJ"/><use transform="matrix(0.08013774382344359,0,0,0.08013774382344359,38.38597929142948,0)" xlink:href="#bt"/><use transform="matrix(0.08013774382344359,0,0,0.08013774382344359,62.34716469463911,0)" xlink:href="#aJ"/><use transform="matrix(0.08013774382344359,0,0,0.08013774382344359,78.37471345932784,0)" xlink:href="#aX"/><use transform="matrix(0.08013774382344359,0,0,0.08013774382344359,94.40226222401655,0)" xlink:href="#aB"/><use transform="matrix(0.08013774382344359,0,0,0.08013774382344359,102.4160366063609,0)" xlink:href="#aP"/></g><path fill="#333" d="M179-190L93 31C79 59 56 82 12 73V49c39 6 53-20 64-50L1-190h34L92-34l54-156h33" id="bu"/><g id="S"><use transform="matrix(0.08013774382344359,0,0,0.08013774382344359,0,0)" xlink:href="#aC"/><use transform="matrix(0.08013774382344359,0,0,0.08013774382344359,16.027548764688717,0)" xlink:href="#aD"/><use transform="matrix(0.08013774382344359,0,0,0.08013774382344359,25.563940279678505,0)" xlink:href="#aD"/><use transform="matrix(0.08013774382344359,0,0,0.08013774382344359,35.10033179466829,0)" xlink:href="#aC"/><use transform="matrix(0.08013774382344359,0,0,0.08013774382344359,51.12788055935701,0)" xlink:href="#bu"/></g><g id="T"><use transform="matrix(0.08013774382344359,0,0,0.08013774382344359,0,0)" xlink:href="#aC"/><use transform="matrix(0.08013774382344359,0,0,0.08013774382344359,16.027548764688717,0)" xlink:href="#aD"/><use transform="matrix(0.08013774382344359,0,0,0.08013774382344359,25.563940279678505,0)" xlink:href="#aN"/><use transform="matrix(0.08013774382344359,0,0,0.08013774382344359,39.98873416789835,0)" xlink:href="#aL"/><use transform="matrix(0.08013774382344359,0,0,0.08013774382344359,56.01628293258707,0)" xlink:href="#aG"/><use transform="matrix(0.08013774382344359,0,0,0.08013774382344359,62.34716469463911,0)" xlink:href="#aO"/><use transform="matrix(0.08013774382344359,0,0,0.08013774382344359,76.77195858285896,0)" xlink:href="#aP"/><use transform="matrix(0.08013774382344359,0,0,0.08013774382344359,92.79950734754767,0)" xlink:href="#aI"/></g><g id="U"><use transform="matrix(0.08013774382344359,0,0,0.08013774382344359,0,0)" xlink:href="#aR"/><use transform="matrix(0.08013774382344359,0,0,0.08013774382344359,19.23305851762646,0)" xlink:href="#aM"/><use transform="matrix(0.08013774382344359,0,0,0.08013774382344359,33.657852405846306,0)" xlink:href="#aB"/><use transform="matrix(0.08013774382344359,0,0,0.08013774382344359,41.671626788190665,0)" xlink:href="#aD"/><use transform="matrix(0.08013774382344359,0,0,0.08013774382344359,51.20801830318045,0)" xlink:href="#aC"/><use transform="matrix(0.08013774382344359,0,0,0.08013774382344359,67.23556706786917,0)" xlink:href="#aJ"/><use transform="matrix(0.08013774382344359,0,0,0.08013774382344359,83.26311583255789,0)" xlink:href="#aD"/></g><g id="V"><use transform="matrix(0.08013774382344359,0,0,0.08013774382344359,0,0)" xlink:href="#aF"/><use transform="matrix(0.08013774382344359,0,0,0.08013774382344359,6.3308817620520434,0)" xlink:href="#aP"/><use transform="matrix(0.08013774382344359,0,0,0.08013774382344359,22.35843052674076,0)" xlink:href="#aI"/></g><path fill="#333" d="M143 0L79-87 56-68V0H24v-261h32v163l83-92h37l-77 82L181 0h-38" id="bv"/><g id="W"><use transform="matrix(0.08013774382344359,0,0,0.08013774382344359,0,0)" xlink:href="#aF"/><use transform="matrix(0.08013774382344359,0,0,0.08013774382344359,6.3308817620520434,0)" xlink:href="#aG"/><use transform="matrix(0.08013774382344359,0,0,0.08013774382344359,12.661763524104087,0)" xlink:href="#aX"/><use transform="matrix(0.08013774382344359,0,0,0.08013774382344359,28.689312288792806,0)" xlink:href="#bv"/><use transform="matrix(0.08013774382344359,0,0,0.08013774382344359,43.11410617701265,0)" xlink:href="#aI"/></g><path fill="#333" d="M197 0v-115H63V0H30v-248h33v105h134v-105h34V0h-34" id="bw"/><g id="X"><use transform="matrix(0.09248342283578927,0,0,0.09248342283578927,0,0)" xlink:href="#aQ"/><use transform="matrix(0.09248342283578927,0,0,0.09248342283578927,20.25386960103785,0)" xlink:href="#bw"/><use transform="matrix(0.09248342283578927,0,0,0.09248342283578927,44.20707611550727,0)" xlink:href="#aC"/><use transform="matrix(0.09248342283578927,0,0,0.09248342283578927,62.70376068266512,0)" xlink:href="#bu"/></g><g id="Y"><use transform="matrix(0.09248342283578927,0,0,0.09248342283578927,0,0)" xlink:href="#aF"/><use transform="matrix(0.09248342283578927,0,0,0.09248342283578927,7.306190404027352,0)" xlink:href="#aG"/><use transform="matrix(0.09248342283578927,0,0,0.09248342283578927,14.612380808054704,0)" xlink:href="#aX"/><use transform="matrix(0.09248342283578927,0,0,0.09248342283578927,33.10906537521256,0)" xlink:href="#bv"/><use transform="matrix(0.09248342283578927,0,0,0.09248342283578927,49.756081485654626,0)" xlink:href="#aI"/><use transform="matrix(0.09248342283578927,0,0,0.09248342283578927,66.4030975960967,0)" xlink:href="#aU"/></g><path fill="#333" d="M140-251c81 0 123 46 123 126C263-46 219 4 140 4 59 4 17-45 17-125s42-126 123-126zm0 227c63 0 89-41 89-101s-29-99-89-99c-61 0-89 39-89 99S79-25 140-24" id="bx"/><g id="Z"><use transform="matrix(0.09248342283578927,0,0,0.09248342283578927,0,0)" xlink:href="#bx"/><use transform="matrix(0.09248342283578927,0,0,0.09248342283578927,25.895358394020995,0)" xlink:href="#aK"/><use transform="matrix(0.09248342283578927,0,0,0.09248342283578927,44.392042961178845,0)" xlink:href="#aB"/><use transform="matrix(0.09248342283578927,0,0,0.09248342283578927,53.64038524475777,0)" xlink:href="#aG"/><use transform="matrix(0.09248342283578927,0,0,0.09248342283578927,60.94657564878513,0)" xlink:href="#aP"/><use transform="matrix(0.09248342283578927,0,0,0.09248342283578927,79.44326021594298,0)" xlink:href="#aX"/><use transform="matrix(0.09248342283578927,0,0,0.09248342283578927,97.93994478310083,0)" xlink:href="#aI"/></g><path fill="#333" d="M16-82v-28h88v28H16" id="by"/><g id="aa"><use transform="matrix(0.08013774382344359,0,0,0.08013774382344359,0,0)" xlink:href="#by"/><use transform="matrix(0.08013774382344359,0,0,0.08013774382344359,9.536391514989788,0)" xlink:href="#aO"/><use transform="matrix(0.08013774382344359,0,0,0.08013774382344359,23.961185403209633,0)" xlink:href="#aC"/><use transform="matrix(0.08013774382344359,0,0,0.08013774382344359,39.98873416789835,0)" xlink:href="#aF"/><use transform="matrix(0.08013774382344359,0,0,0.08013774382344359,46.319615929950395,0)" xlink:href="#aG"/><use transform="matrix(0.08013774382344359,0,0,0.08013774382344359,52.65049769200244,0)" xlink:href="#aH"/><use transform="matrix(0.08013774382344359,0,0,0.08013774382344359,68.67804645669116,0)" xlink:href="#aC"/><use transform="matrix(0.08013774382344359,0,0,0.08013774382344359,84.70559522137987,0)" xlink:href="#aB"/><use transform="matrix(0.08013774382344359,0,0,0.08013774382344359,92.71936960372423,0)" xlink:href="#aJ"/></g><g id="ab"><use transform="matrix(0.08013774382344359,0,0,0.08013774382344359,0,0)" xlink:href="#by"/><use transform="matrix(0.08013774382344359,0,0,0.08013774382344359,9.536391514989788,0)" xlink:href="#aI"/><use transform="matrix(0.08013774382344359,0,0,0.08013774382344359,23.961185403209633,0)" xlink:href="#aB"/><use transform="matrix(0.08013774382344359,0,0,0.08013774382344359,31.97495978555399,0)" xlink:href="#aC"/><use transform="matrix(0.08013774382344359,0,0,0.08013774382344359,48.00250855024271,0)" xlink:href="#aB"/><use transform="matrix(0.08013774382344359,0,0,0.08013774382344359,56.01628293258707,0)" xlink:href="#aI"/></g><g id="ac"><use transform="matrix(0.08013774382344359,0,0,0.08013774382344359,0,0)" xlink:href="#by"/><use transform="matrix(0.08013774382344359,0,0,0.08013774382344359,9.536391514989788,0)" xlink:href="#aO"/><use transform="matrix(0.08013774382344359,0,0,0.08013774382344359,23.961185403209633,0)" xlink:href="#aC"/><use transform="matrix(0.08013774382344359,0,0,0.08013774382344359,39.98873416789835,0)" xlink:href="#aF"/><use transform="matrix(0.08013774382344359,0,0,0.08013774382344359,46.319615929950395,0)" xlink:href="#aG"/><use transform="matrix(0.08013774382344359,0,0,0.08013774382344359,52.65049769200244,0)" xlink:href="#aH"/><use transform="matrix(0.08013774382344359,0,0,0.08013774382344359,68.67804645669116,0)" xlink:href="#aC"/><use transform="matrix(0.08013774382344359,0,0,0.08013774382344359,84.70559522137987,0)" xlink:href="#aB"/><use transform="matrix(0.08013774382344359,0,0,0.08013774382344359,92.71936960372423,0)" xlink:href="#aJ"/></g><g id="ad"><use transform="matrix(0.08013774382344359,0,0,0.08013774382344359,0,0)" xlink:href="#by"/><use transform="matrix(0.08013774382344359,0,0,0.08013774382344359,9.536391514989788,0)" xlink:href="#aI"/><use transform="matrix(0.08013774382344359,0,0,0.08013774382344359,23.961185403209633,0)" xlink:href="#aB"/><use transform="matrix(0.08013774382344359,0,0,0.08013774382344359,31.97495978555399,0)" xlink:href="#aC"/><use transform="matrix(0.08013774382344359,0,0,0.08013774382344359,48.00250855024271,0)" xlink:href="#aB"/><use transform="matrix(0.08013774382344359,0,0,0.08013774382344359,56.01628293258707,0)" xlink:href="#aI"/></g><path fill="#333" d="M33-154v-36h34v36H33zM33 0v-36h34V0H33" id="bz"/><g id="ae"><use transform="matrix(0.08013774382344359,0,0,0.08013774382344359,0,0)" xlink:href="#bx"/><use transform="matrix(0.08013774382344359,0,0,0.08013774382344359,22.438568270564204,0)" xlink:href="#aV"/><use transform="matrix(0.08013774382344359,0,0,0.08013774382344359,38.46611703525292,0)" xlink:href="#aB"/><use transform="matrix(0.08013774382344359,0,0,0.08013774382344359,46.47989141759728,0)" xlink:href="#aJ"/><use transform="matrix(0.08013774382344359,0,0,0.08013774382344359,62.507440182286,0)" xlink:href="#aX"/><use transform="matrix(0.08013774382344359,0,0,0.08013774382344359,78.53498894697472,0)" xlink:href="#aJ"/><use transform="matrix(0.08013774382344359,0,0,0.08013774382344359,94.56253771166344,0)" xlink:href="#aD"/><use transform="matrix(0.08013774382344359,0,0,0.08013774382344359,104.09892922665323,0)" xlink:href="#bz"/></g><use transform="matrix(0.08013774382344359,0,0,0.08013774382344359,0,0)" xlink:href="#by" id="af"/><g id="ag"><use transform="matrix(0.08013774382344359,0,0,0.08013774382344359,0,0)" xlink:href="#bs"/><use transform="matrix(0.08013774382344359,0,0,0.08013774382344359,20.75567565027189,0)" xlink:href="#aW"/><use transform="matrix(0.08013774382344359,0,0,0.08013774382344359,36.78322441496061,0)" xlink:href="#aB"/><use transform="matrix(0.08013774382344359,0,0,0.08013774382344359,44.796998797304965,0)" xlink:href="#aC"/></g><g id="ah"><use transform="matrix(0.08013774382344359,0,0,0.08013774382344359,0,0)" xlink:href="#bj"/><use transform="matrix(0.08013774382344359,0,0,0.08013774382344359,16.027548764688717,0)" xlink:href="#aG"/><use transform="matrix(0.08013774382344359,0,0,0.08013774382344359,22.35843052674076,0)" xlink:href="#aX"/><use transform="matrix(0.08013774382344359,0,0,0.08013774382344359,38.38597929142948,0)" xlink:href="#bv"/><use transform="matrix(0.08013774382344359,0,0,0.08013774382344359,52.810773179649324,0)" xlink:href="#aI"/></g><path fill="#333" d="M127-220V0H93v-220H8v-28h204v28h-85" id="bA"/><g id="ai"><use transform="matrix(0.08013774382344359,0,0,0.08013774382344359,0,0)" xlink:href="#by"/><use transform="matrix(0.08013774382344359,0,0,0.08013774382344359,9.536391514989788,0)" xlink:href="#bA"/><use transform="matrix(0.08013774382344359,0,0,0.08013774382344359,23.88104765938619,0)" xlink:href="#aJ"/><use transform="matrix(0.08013774382344359,0,0,0.08013774382344359,39.90859642407491,0)" xlink:href="#aM"/><use transform="matrix(0.08013774382344359,0,0,0.08013774382344359,54.33339031229475,0)" xlink:href="#aB"/><use transform="matrix(0.08013774382344359,0,0,0.08013774382344359,62.34716469463911,0)" xlink:href="#aP"/></g><g id="aj"><use transform="matrix(0.08013774382344359,0,0,0.08013774382344359,0,0)" xlink:href="#aA"/><use transform="matrix(0.08013774382344359,0,0,0.08013774382344359,19.23305851762646,0)" xlink:href="#aB"/><use transform="matrix(0.08013774382344359,0,0,0.08013774382344359,27.24683289997082,0)" xlink:href="#aC"/><use transform="matrix(0.08013774382344359,0,0,0.08013774382344359,43.274381664659536,0)" xlink:href="#aB"/><use transform="matrix(0.08013774382344359,0,0,0.08013774382344359,51.288156047003895,0)" xlink:href="#aW"/><use transform="matrix(0.08013774382344359,0,0,0.08013774382344359,67.31570481169261,0)" xlink:href="#aI"/></g><g id="ak"><use transform="matrix(0.08013774382344359,0,0,0.08013774382344359,0,0)" xlink:href="#bx"/><use transform="matrix(0.08013774382344359,0,0,0.08013774382344359,22.438568270564204,0)" xlink:href="#aV"/><use transform="matrix(0.08013774382344359,0,0,0.08013774382344359,38.46611703525292,0)" xlink:href="#aB"/><use transform="matrix(0.08013774382344359,0,0,0.08013774382344359,46.47989141759728,0)" xlink:href="#aJ"/><use transform="matrix(0.08013774382344359,0,0,0.08013774382344359,62.507440182286,0)" xlink:href="#aX"/><use transform="matrix(0.08013774382344359,0,0,0.08013774382344359,78.53498894697472,0)" xlink:href="#aJ"/><use transform="matrix(0.08013774382344359,0,0,0.08013774382344359,94.56253771166344,0)" xlink:href="#aD"/></g><g id="al"><use transform="matrix(0.08013774382344359,0,0,0.08013774382344359,0,0)" xlink:href="#aF"/><use transform="matrix(0.08013774382344359,0,0,0.08013774382344359,6.3308817620520434,0)" xlink:href="#aG"/><use transform="matrix(0.08013774382344359,0,0,0.08013774382344359,12.661763524104087,0)" xlink:href="#aX"/><use transform="matrix(0.08013774382344359,0,0,0.08013774382344359,28.689312288792806,0)" xlink:href="#bv"/><use transform="matrix(0.08013774382344359,0,0,0.08013774382344359,43.11410617701265,0)" xlink:href="#aI"/></g><g id="am"><use transform="matrix(0.08013774382344359,0,0,0.08013774382344359,0,0)" xlink:href="#aB"/><use transform="matrix(0.08013774382344359,0,0,0.08013774382344359,8.013774382344359,0)" xlink:href="#aP"/><use transform="matrix(0.08013774382344359,0,0,0.08013774382344359,24.041323147033076,0)" xlink:href="#aB"/><use transform="matrix(0.08013774382344359,0,0,0.08013774382344359,32.055097529377434,0)" xlink:href="#aC"/><use transform="matrix(0.08013774382344359,0,0,0.08013774382344359,48.08264629406615,0)" xlink:href="#aF"/><use transform="matrix(0.08013774382344359,0,0,0.08013774382344359,54.413528056118196,0)" xlink:href="#aJ"/><use transform="matrix(0.08013774382344359,0,0,0.08013774382344359,70.44107682080691,0)" xlink:href="#aI"/></g><use transform="matrix(0.08013774382344359,0,0,0.08013774382344359,0,0)" xlink:href="#bu" id="an"/><path fill="#333" d="M85 4C-4 8 31-112 24-190h32v120c0 31 7 50 39 49 72-2 45-101 50-169h31l1 190h-30c-1-10 1-25-2-33-11 22-28 36-60 37zM73-211c8-23 27-35 38-54h36v5l-58 49H73" id="bB"/><g id="ao"><use transform="matrix(0.08013774382344359,0,0,0.08013774382344359,0,0)" xlink:href="#bB"/><use transform="matrix(0.08013774382344359,0,0,0.08013774382344359,16.027548764688717,0)" xlink:href="#aX"/><use transform="matrix(0.08013774382344359,0,0,0.08013774382344359,32.055097529377434,0)" xlink:href="#aG"/><use transform="matrix(0.08013774382344359,0,0,0.08013774382344359,38.38597929142948,0)" xlink:href="#aN"/><use transform="matrix(0.08013774382344359,0,0,0.08013774382344359,52.810773179649324,0)" xlink:href="#aP"/><use transform="matrix(0.08013774382344359,0,0,0.08013774382344359,68.83832194433805,0)" xlink:href="#aI"/></g><g id="ap"><use transform="matrix(0.08013774382344359,0,0,0.08013774382344359,0,0)" xlink:href="#aF"/><use transform="matrix(0.08013774382344359,0,0,0.08013774382344359,6.3308817620520434,0)" xlink:href="#aG"/><use transform="matrix(0.08013774382344359,0,0,0.08013774382344359,12.661763524104087,0)" xlink:href="#aX"/><use transform="matrix(0.08013774382344359,0,0,0.08013774382344359,28.689312288792806,0)" xlink:href="#bv"/><use transform="matrix(0.08013774382344359,0,0,0.08013774382344359,43.11410617701265,0)" xlink:href="#aI"/><use transform="matrix(0.08013774382344359,0,0,0.08013774382344359,57.5389000652325,0)" xlink:href="#bz"/></g><g id="aq"><use transform="matrix(0.08013774382344359,0,0,0.08013774382344359,0,0)" xlink:href="#bA"/><use transform="matrix(0.08013774382344359,0,0,0.08013774382344359,14.344656144396403,0)" xlink:href="#aP"/><use transform="matrix(0.08013774382344359,0,0,0.08013774382344359,30.37220490908512,0)" xlink:href="#aB"/><use transform="matrix(0.08013774382344359,0,0,0.08013774382344359,38.38597929142948,0)" xlink:href="#aC"/><use transform="matrix(0.08013774382344359,0,0,0.08013774382344359,54.413528056118196,0)" xlink:href="#aF"/></g><path fill="#333" d="M232-93c-1 65-40 97-104 97C67 4 28-28 28-90v-158h33c8 89-33 224 67 224 102 0 64-133 71-224h33v155" id="bC"/><path fill="#333" d="M145-31C134-9 116 4 85 4 32 4 16-35 15-94c0-59 17-99 70-100 32-1 48 14 60 33 0-11-1-24 2-32h30l-1 268h-32zM93-21c41 0 51-33 51-76s-8-73-50-73c-40 0-46 35-46 75s5 74 45 74" id="bD"/><g id="ar"><use transform="matrix(0.08013774382344359,0,0,0.08013774382344359,0,0)" xlink:href="#bC"/><use transform="matrix(0.08013774382344359,0,0,0.08013774382344359,20.75567565027189,0)" xlink:href="#aX"/><use transform="matrix(0.08013774382344359,0,0,0.08013774382344359,36.78322441496061,0)" xlink:href="#aG"/><use transform="matrix(0.08013774382344359,0,0,0.08013774382344359,43.11410617701265,0)" xlink:href="#bD"/><use transform="matrix(0.08013774382344359,0,0,0.08013774382344359,59.14165494170137,0)" xlink:href="#aW"/><use transform="matrix(0.08013774382344359,0,0,0.08013774382344359,75.16920370639008,0)" xlink:href="#aJ"/></g><path fill="#333" d="M160-131c35 5 61 23 61 61C221 17 115-2 30 0v-248c76 3 177-17 177 60 0 33-19 50-47 57zm-97-11c50-1 110 9 110-42 0-47-63-36-110-37v79zm0 115c55-2 124 14 124-45 0-56-70-42-124-44v89" id="bE"/><g id="as"><use transform="matrix(0.08013774382344359,0,0,0.08013774382344359,0,0)" xlink:href="#bE"/><use transform="matrix(0.08013774382344359,0,0,0.08013774382344359,19.23305851762646,0)" xlink:href="#aD"/><use transform="matrix(0.08013774382344359,0,0,0.08013774382344359,28.76945003261625,0)" xlink:href="#aP"/><use transform="matrix(0.08013774382344359,0,0,0.08013774382344359,44.796998797304965,0)" xlink:href="#bv"/><use transform="matrix(0.08013774382344359,0,0,0.08013774382344359,59.22179268552481,0)" xlink:href="#aJ"/><use transform="matrix(0.08013774382344359,0,0,0.08013774382344359,75.24934145021354,0)" xlink:href="#aX"/></g><g id="at"><use transform="matrix(0.08013774382344359,0,0,0.08013774382344359,0,0)" xlink:href="#aD"/><use transform="matrix(0.08013774382344359,0,0,0.08013774382344359,9.536391514989788,0)" xlink:href="#aJ"/><use transform="matrix(0.08013774382344359,0,0,0.08013774382344359,25.563940279678505,0)" xlink:href="#aI"/><use transform="matrix(0.08013774382344359,0,0,0.08013774382344359,39.98873416789835,0)" xlink:href="#aW"/><use transform="matrix(0.08013774382344359,0,0,0.08013774382344359,56.01628293258707,0)" xlink:href="#aF"/><use transform="matrix(0.08013774382344359,0,0,0.08013774382344359,62.34716469463911,0)" xlink:href="#aB"/><use transform="matrix(0.08013774382344359,0,0,0.08013774382344359,70.36093907698347,0)" xlink:href="#aC"/><use transform="matrix(0.08013774382344359,0,0,0.08013774382344359,86.38848784167219,0)" xlink:href="#aH"/><use transform="matrix(0.08013774382344359,0,0,0.08013774382344359,102.4160366063609,0)" xlink:href="#aP"/></g><g id="au"><use transform="matrix(0.08013774382344359,0,0,0.08013774382344359,0,0)" xlink:href="#aJ"/><use transform="matrix(0.08013774382344359,0,0,0.08013774382344359,16.027548764688717,0)" xlink:href="#aX"/></g><g id="av"><use transform="matrix(0.08013774382344359,0,0,0.08013774382344359,0,0)" xlink:href="#aN"/><use transform="matrix(0.08013774382344359,0,0,0.08013774382344359,14.424793888219845,0)" xlink:href="#aP"/><use transform="matrix(0.08013774382344359,0,0,0.08013774382344359,30.452342652908563,0)" xlink:href="#aX"/><use transform="matrix(0.08013774382344359,0,0,0.08013774382344359,46.47989141759728,0)" xlink:href="#aI"/><use transform="matrix(0.08013774382344359,0,0,0.08013774382344359,60.904685305817125,0)" xlink:href="#aP"/><use transform="matrix(0.08013774382344359,0,0,0.08013774382344359,76.93223407050584,0)" xlink:href="#aF"/><use transform="matrix(0.08013774382344359,0,0,0.08013774382344359,83.26311583255789,0)" xlink:href="#aC"/><use transform="matrix(0.08013774382344359,0,0,0.08013774382344359,99.2906645972466,0)" xlink:href="#aY"/></g><g id="aw"><use transform="matrix(0.08013774382344359,0,0,0.08013774382344359,0,0)" xlink:href="#aX"/><use transform="matrix(0.08013774382344359,0,0,0.08013774382344359,16.027548764688717,0)" xlink:href="#aP"/></g><g id="ax"><use transform="matrix(0.08013774382344359,0,0,0.08013774382344359,0,0)" xlink:href="#aI"/><use transform="matrix(0.08013774382344359,0,0,0.08013774382344359,14.424793888219845,0)" xlink:href="#aJ"/></g><path fill="#333" d="M100-194c62-1 85 37 85 99 1 63-27 99-86 99S16-35 15-95c0-66 28-99 85-99zM99-20c44 1 53-31 53-75 0-43-8-75-51-75s-53 32-53 75 10 74 51 75zM76-211c8-23 27-35 38-54h36v5l-58 49H76" id="bF"/><g id="ay"><use transform="matrix(0.08013774382344359,0,0,0.08013774382344359,0,0)" xlink:href="#aJ"/><use transform="matrix(0.08013774382344359,0,0,0.08013774382344359,16.027548764688717,0)" xlink:href="#aX"/><use transform="matrix(0.08013774382344359,0,0,0.08013774382344359,32.055097529377434,0)" xlink:href="#aN"/><use transform="matrix(0.08013774382344359,0,0,0.08013774382344359,46.47989141759728,0)" xlink:href="#aP"/><use transform="matrix(0.08013774382344359,0,0,0.08013774382344359,62.507440182286,0)" xlink:href="#aX"/><use transform="matrix(0.08013774382344359,0,0,0.08013774382344359,78.53498894697472,0)" xlink:href="#aB"/><use transform="matrix(0.08013774382344359,0,0,0.08013774382344359,86.54876332931909,0)" xlink:href="#aD"/><use transform="matrix(0.08013774382344359,0,0,0.08013774382344359,96.08515484430887,0)" xlink:href="#bF"/></g><path fill="#333" d="M33 0v-38h34V0H33" id="bG"/><g id="az"><use transform="matrix(0.08013774382344359,0,0,0.08013774382344359,0,0)" xlink:href="#aF"/><use transform="matrix(0.08013774382344359,0,0,0.08013774382344359,6.3308817620520434,0)" xlink:href="#aG"/><use transform="matrix(0.08013774382344359,0,0,0.08013774382344359,12.661763524104087,0)" xlink:href="#aX"/><use transform="matrix(0.08013774382344359,0,0,0.08013774382344359,28.689312288792806,0)" xlink:href="#bv"/><use transform="matrix(0.08013774382344359,0,0,0.08013774382344359,43.11410617701265,0)" xlink:href="#aI"/><use transform="matrix(0.08013774382344359,0,0,0.08013774382344359,57.5389000652325,0)" xlink:href="#bG"/></g></defs></g></svg>
